<?xml version="1.0" encoding="utf-8"?>
<!-- Generator: Adobe Illustrator 15.0.0, SVG Export Plug-In . SVG Version: 6.00 Build 0)  -->
<!DOCTYPE svg PUBLIC "-//W3C//DTD SVG 1.1//EN" "http://www.w3.org/Graphics/SVG/1.1/DTD/svg11.dtd">
<svg version="1.1" id="logo" xmlns="http://www.w3.org/2000/svg" xmlns:xlink="http://www.w3.org/1999/xlink" x="0px" y="0px"
	 width="368.317px" height="83.489px" viewBox="0 0 368.317 83.489" enable-background="new 0 0 368.317 83.489"
	 xml:space="preserve">
<g id="rood">
	<rect x="349.931" y="65.247" fill="#8DC63F" width="5.386" height="17.125"/>
	<rect x="323.931" y="65.247" fill="#8DC63F" width="5.386" height="17.125"/>
	<rect x="297.931" y="65.247" fill="#8DC63F" width="5.386" height="17.125"/>
</g>
<g id="zwart">
	<rect x="288.947" y="77.57" width="79.37" height="5.386"/>
	<rect x="362.931" y="55.206" width="5.386" height="27.166"/>
	<rect x="336.931" y="55.206" width="5.386" height="27.166"/>
	<rect x="310.931" y="55.206" width="5.386" height="27.166"/>
</g>
<g>
	<path d="M5.604,61.438H0.129v-6.225h18v6.225h-5.438v21.525H5.604V61.438z"/>
	<path d="M21.542,82.964v-27.75h7.087v10.425h9.075V55.214h7.087v27.75h-7.087V71.863h-9.075v11.101H21.542z"/>
	<path d="M50.379,55.214h15.712v6.225h-8.625v4.312h8.363v6.226h-8.363v4.763h8.625v6.225H50.379V55.214z"/>
	<path d="M70.742,55.214h9.075c4.35,0,7.05,0.787,8.588,1.987c2.325,1.8,3.375,4.537,3.375,7.575c0,2.138-0.6,3.787-1.388,5.024
		c-0.938,1.463-2.288,2.4-3.6,2.963l5.738,10.2h-7.312l-7.238-13.388h1.163c1.8,0,3.337-0.15,4.275-0.75
		c0.863-0.562,1.575-1.875,1.575-3.412c0-1.463-0.712-2.625-1.65-3.226c-0.788-0.487-1.913-0.75-2.888-0.75h-2.625v21.525h-7.087
		V55.214z"/>
	<path d="M95.792,82.964v-27.75h9.488l5.212,17.888l5.062-17.888h9.525v27.75h-6.525l0.226-20.775l-6,20.775h-4.688l-6-20.775
		l0.225,20.775H95.792z"/>
	<path d="M129.466,69.389c0-9.075,6.975-14.7,14.625-14.7c8.55,0,14.663,6.675,14.663,14.4c0,7.725-6.075,14.4-14.7,14.4
		c-8.738,0-14.588-6.938-14.588-14.063V69.389z M136.554,69.051c0,4.238,2.888,8.213,7.649,8.213c5.025,0,7.463-4.575,7.463-8.138
		c0-3.6-2.438-8.212-7.537-8.212c-4.913,0-7.575,4.199-7.575,8.1V69.051z"/>
	<path d="M163.141,82.964v-27.75h9.487l5.213,17.888l5.062-17.888h9.525v27.75h-6.525l0.225-20.775l-6,20.775h-4.688l-6-20.775
		l0.225,20.775H163.141z"/>
	<path d="M198.016,55.214h15.713v6.225h-8.625v4.312h8.361v6.226h-8.361v4.763h8.625v6.225h-15.713V55.214z"/>
	<path d="M221.715,61.438h-5.475v-6.225h18v6.225h-5.438v21.525h-7.088V61.438z"/>
	<path d="M237.653,55.214h15.713v6.225h-8.625v4.312h8.361v6.226h-8.361v4.763h8.625v6.225h-15.713V55.214z"/>
	<path d="M258.014,55.214h9.076c4.35,0,7.049,0.787,8.586,1.987c2.326,1.8,3.375,4.537,3.375,7.575c0,2.138-0.6,3.787-1.387,5.024
		c-0.938,1.463-2.287,2.4-3.6,2.963l5.736,10.2h-7.312l-7.236-13.388h1.162c1.801,0,3.338-0.15,4.275-0.75
		c0.861-0.562,1.574-1.875,1.574-3.412c0-1.463-0.713-2.625-1.65-3.226c-0.787-0.487-1.912-0.75-2.887-0.75h-2.625v21.525h-7.088
		V55.214z"/>
</g>
<g>
	<path fill="#8DC63F" d="M41.256,25.758c-2.322,9.45-10.53,15.714-20.196,15.714C8.532,41.472,0,31.482,0,20.682
		C0,10.476,7.884,0,20.952,0C33.48,0,40.176,9.666,41.256,15.93H30.564c-1.134-2.97-4.158-6.966-9.666-6.966
		c-6.858,0-10.692,5.994-10.692,11.664c0,6.048,4.104,11.88,10.746,11.88c6.372,0,8.964-5.346,9.612-6.75H41.256z"/>
	<path fill="#ED1C24" d="M44.819,21.168C44.819,8.1,54.863,0,65.879,0c12.312,0,21.114,9.612,21.114,20.736
		s-8.748,20.736-21.168,20.736c-12.582,0-21.006-9.99-21.006-20.25V21.168z M55.025,20.682c0,6.102,4.158,11.826,11.016,11.826
		c7.236,0,10.746-6.588,10.746-11.718c0-5.184-3.51-11.826-10.854-11.826c-7.074,0-10.908,6.048-10.908,11.664V20.682z"/>
	<path fill="#8DC63F" d="M92.501,40.716V0.756h13.662l7.506,25.758l7.29-25.758h13.716v39.96h-9.396l0.324-29.916l-8.64,29.916
		h-6.75l-8.64-29.916l0.324,29.916H92.501z"/>
	<path fill="#8DC63F" d="M154.979,0.756c7.398,0,10.152,1.134,12.312,2.916c3.132,2.592,4.698,6.534,4.698,10.584
		s-1.675,8.316-4.212,10.476c-2.755,2.322-5.454,3.456-11.665,3.456h-3.996v12.528h-10.206V0.756H154.979z M152.117,19.224h3.726
		c0.972,0,2.592,0,3.942-0.594c1.35-0.594,2.43-1.836,2.43-4.212s-1.134-3.51-2.538-4.104c-1.404-0.594-3.078-0.594-4.212-0.594
		h-3.348V19.224z"/>
	<path fill="#8DC63F" d="M176.254,0.756h22.625V9.72h-12.42v6.21h12.043v8.964h-12.043v6.858h12.42v8.964h-22.625V0.756z"/>
	<path fill="#8DC63F" d="M209.571,9.72h-7.883V0.756h25.92V9.72h-7.83v30.996h-10.207V9.72z"/>
	<path fill="#8DC63F" d="M231.711,0.756h22.625V9.72h-12.42v6.21h12.043v8.964h-12.043v6.858h12.42v8.964h-22.625V0.756z"/>
	<path fill="#8DC63F" d="M284.36,25.11l-0.215-24.354h9.773v39.96h-8.855L269.78,16.632l0.217,24.084h-9.773V0.756h8.801
		L284.36,25.11z"/>
	<path fill="#8DC63F" d="M306.014,9.72h-7.885V0.756h25.92V9.72h-7.83v30.996h-10.205V9.72z"/>
	<path fill="#8DC63F" d="M328.153,0.756h10.207v39.96h-10.207V0.756z"/>
	<path fill="#8DC63F" d="M345.596,0.756h22.625V9.72h-12.42v6.21h12.043v8.964h-12.043v6.858h12.42v8.964h-22.625V0.756z"/>
</g>
</svg>
